<svg xmlns="http://www.w3.org/2000/svg" width="222.783" height="323.556" viewBox="0 0 167.087 242.667"><defs><linearGradient id="a"><stop offset="0"/><stop offset="1" stop-opacity=".649"/></linearGradient><linearGradient id="b"><stop offset="0" stop-color="#fff" stop-opacity=".435"/><stop offset="1" stop-opacity="0"/></linearGradient><linearGradient id="c"><stop offset="0" stop-color="#fff" stop-opacity=".489"/><stop offset="1" stop-opacity="0"/></linearGradient><linearGradient id="d"><stop offset="0" stop-color="#fff" stop-opacity=".237"/><stop offset="1" stop-opacity="0"/></linearGradient><linearGradient id="e"><stop offset="0" stop-color="#df0000"/><stop offset="1" stop-color="#df0000" stop-opacity=".672"/></linearGradient><linearGradient id="f"><stop offset="0" stop-color="#fff" stop-opacity=".313"/><stop offset="1" stop-opacity="0"/></linearGradient><linearGradient id="g"><stop offset="0" stop-color="#fff" stop-opacity=".29"/><stop offset="1" stop-opacity="0"/></linearGradient></defs><g stroke="#000"><path d="M166.837 235.548c0 3.777-3.087 6.869-6.871 6.869H7.11c-3.775 0-6.861-3.092-6.861-6.87V7.12C.25 3.343 3.336.25 7.11.25h152.856c3.784 0 6.87 3.093 6.87 6.87v228.428z" fill="#fff" stroke-width=".5"/></g><text style="line-height:125%" x="8.775" y="28.013" font-size="32" font-weight="400" letter-spacing="0" word-spacing="0" fill="#df0000" font-family="Bitstream Vera Sans"><tspan x="8.775" y="28.013" style="-inkscape-font-specification:Arial" font-family="Arial">8</tspan></text><path d="M23.332 32.282c-5.43 0-6.154 5.449-6.154 5.449s-.725-5.449-6.155-5.449c-3.8 0-7.24 2.443-7.24 7.052 0 6.09 11.016 12.213 13.395 21.154 2.263-8.934 13.394-15.065 13.394-21.154 0-4.609-3.44-7.052-7.24-7.052z" fill="#df0000"/><text style="line-height:125%" x="-158.818" y="-213.515" transform="scale(-1)" font-size="32" font-weight="400" letter-spacing="0" word-spacing="0" fill="#df0000" font-family="Bitstream Vera Sans"><tspan x="-158.818" y="-213.515" style="-inkscape-font-specification:Arial" font-family="Arial">8</tspan></text><path d="M144.001 209.246c5.43 0 6.155-5.448 6.155-5.448s.725 5.448 6.155 5.448c3.8 0 7.24-2.443 7.24-7.051 0-6.09-11.016-12.213-13.395-21.155-2.264 8.934-13.394 15.065-13.394 21.155 0 4.608 3.439 7.051 7.24 7.051zM64.728 8.196c-9.012 0-10.216 9.043-10.216 9.043S53.31 8.196 44.297 8.196c-6.309 0-12.017 4.055-12.017 11.704 0 10.107 18.284 20.27 22.232 35.112C58.27 40.183 76.744 30.007 76.744 19.9c0-7.65-5.708-11.704-12.016-11.704zM44.297 231.414c9.012 0 10.215-9.043 10.215-9.043s1.204 9.043 10.216 9.043c6.308 0 12.016-4.055 12.016-11.704 0-10.107-18.283-20.27-22.232-35.112-3.757 14.829-22.232 25.005-22.232 35.112 0 7.65 5.708 11.704 12.017 11.704zM64.728 101.897c-9.012 0-10.216 9.043-10.216 9.043s-1.203-9.043-10.215-9.043c-6.309 0-12.017 4.054-12.017 11.704 0 10.107 18.284 20.27 22.232 35.112 3.758-14.83 22.232-25.005 22.232-35.112 0-7.65-5.708-11.704-12.016-11.704zM122.466 7.865c-9.012 0-10.216 9.043-10.216 9.043s-1.203-9.043-10.215-9.043c-6.309 0-12.017 4.055-12.017 11.704 0 10.107 18.284 20.27 22.232 35.112 3.758-14.829 22.232-25.005 22.232-35.112 0-7.65-5.708-11.704-12.016-11.704zM102.035 232.683c9.012 0 10.215-9.043 10.215-9.043s1.204 9.043 10.216 9.043c6.308 0 12.016-4.055 12.016-11.704 0-10.107-18.283-20.27-22.232-35.112-3.757 14.829-22.232 25.005-22.232 35.112 0 7.65 5.708 11.704 12.017 11.704zM122.466 101.566c-9.012 0-10.216 9.043-10.216 9.043s-1.203-9.043-10.215-9.043c-6.309 0-12.017 4.054-12.017 11.704 0 10.107 18.284 20.27 22.232 35.112 3.758-14.83 22.232-25.005 22.232-35.112 0-7.65-5.708-11.704-12.016-11.704zM93.894 53.297c-9.012 0-10.216 9.043-10.216 9.043s-1.203-9.043-10.215-9.043c-6.309 0-12.017 4.055-12.017 11.704 0 10.107 18.284 20.27 22.232 35.112 3.758-14.829 22.232-25.005 22.232-35.112 0-7.65-5.708-11.704-12.016-11.704zM72.998 186.116c9.012 0 10.215-9.044 10.215-9.044s1.204 9.044 10.216 9.044c6.308 0 12.016-4.055 12.016-11.704 0-10.107-18.283-20.271-22.232-35.112-3.757 14.828-22.232 25.005-22.232 35.112 0 7.649 5.708 11.704 12.017 11.704z" fill="#df0000"/></svg>