<svg xmlns="http://www.w3.org/2000/svg" xmlns:xlink="http://www.w3.org/1999/xlink" width="222.783" height="323.556" viewBox="0 0 167.087 242.667"><defs><linearGradient id="a"><stop offset="0"/><stop offset="1" stop-opacity=".649"/></linearGradient><linearGradient id="b"><stop offset="0" stop-color="#fff" stop-opacity=".435"/><stop offset="1" stop-opacity="0"/></linearGradient><linearGradient id="c"><stop offset="0" stop-color="#fff" stop-opacity=".489"/><stop offset="1" stop-opacity="0"/></linearGradient><linearGradient id="d"><stop offset="0" stop-color="#fff" stop-opacity=".237"/><stop offset="1" stop-opacity="0"/></linearGradient><linearGradient id="e"><stop offset="0" stop-color="#fff" stop-opacity=".29"/><stop offset="1" stop-opacity="0"/></linearGradient><linearGradient id="g"><stop offset="0" stop-color="#df0000"/><stop offset="1" stop-color="#df0000" stop-opacity=".641"/></linearGradient><linearGradient id="f"><stop offset="0" stop-color="#fff" stop-opacity=".435"/><stop offset="1" stop-opacity="0"/></linearGradient><radialGradient r="81.903" fy="511.223" fx="171.487" cy="511.223" cx="171.487" gradientTransform="matrix(1.15299 -.67392 .39482 .67549 -233.633 270.4)" gradientUnits="userSpaceOnUse" id="i" xlink:href="#f"/><radialGradient xlink:href="#g" id="h" gradientUnits="userSpaceOnUse" gradientTransform="matrix(-1.12242 .00551 -.00909 -1.85031 -.03 -10.228)" cx="0" cy="-3.234" fx="0" fy="-3.234" r="8"/><filter color-interpolation-filters="sRGB" id="j" x="-.139" width="1.279" y="-.162" height="1.325"><feGaussianBlur stdDeviation="9.511"/></filter></defs><g stroke="#000"><path d="M166.837 235.548c0 3.777-3.087 6.869-6.871 6.869H7.11c-3.775 0-6.861-3.092-6.861-6.87V7.12C.25 3.343 3.336.25 7.11.25h152.856c3.784 0 6.87 3.093 6.87 6.87v228.428z" fill="#fff" stroke-width=".5"/></g><text style="line-height:125%" x="6.246" y="28.013" font-size="32" font-weight="400" letter-spacing="0" word-spacing="0" fill="#df0000" font-family="Bitstream Vera Sans"><tspan x="6.246" y="28.013" style="-inkscape-font-specification:Arial" font-family="Arial">A</tspan></text><text style="line-height:125%" x="-161.088" y="-213.515" transform="scale(-1)" font-size="32" font-weight="400" letter-spacing="0" word-spacing="0" fill="#df0000" font-family="Bitstream Vera Sans"><tspan x="-161.088" y="-213.515" style="-inkscape-font-specification:Arial" font-family="Arial">A</tspan></text><path d="M3.243-4.725C1.126-7.59 0-10.5 0-10.5s-1.126 2.91-3.243 5.775C-5.361-1.862-8 0-8 0s2.639 1.861 4.757 4.726C-1.126 7.59 0 10.5 0 10.5s1.126-2.91 3.243-5.774C5.361 1.861 8 0 8 0S5.361-1.862 3.243-4.725z" fill="url(#h)" transform="translate(82.284 116.888) scale(5.95137)"/><path transform="matrix(-.2491 .04028 -.04172 -.25798 131.779 225.09)" d="M117.301 604.266s-8.067-94.95 22.857-122.857c34.761-31.369 140-11.429 140-11.429s-71.54 24.838-100 48.572c-27.21 22.692-62.857 85.714-62.857 85.714z" fill="url(#i)" filter="url(#j)"/><path d="M21.758 37.257c-3.126-4.23-4.79-8.528-4.79-8.528s-1.663 4.298-4.79 8.528c-3.128 4.229-7.025 6.98-7.025 6.98s3.897 2.748 7.025 6.98c3.127 4.228 4.79 8.527 4.79 8.527s1.664-4.3 4.79-8.527c3.128-4.232 7.025-6.98 7.025-6.98s-3.897-2.751-7.025-6.98z" fill="#df0000"/><g><path d="M155.411 191.525c-3.127-4.23-4.79-8.53-4.79-8.53s-1.664 4.3-4.79 8.53c-3.128 4.228-7.025 6.978-7.025 6.978s3.897 2.75 7.025 6.98c3.126 4.23 4.79 8.528 4.79 8.528s1.663-4.299 4.79-8.527c3.128-4.232 7.025-6.98 7.025-6.98s-3.897-2.751-7.025-6.98z" fill="#df0000"/></g></svg>